# xmcd
#
# Track frame offsets: 
#        150
#        15887
#        31420
#        47595
#        65402
#        88907
#        109515
#        128855
#        148492
#        176217
#        198787
#
# Disc length: 2948 seconds
#
# Revision: 3
# Processed by: cddbd v1.5.2PL0 Copyright (c) Steve Scherf et al.
# Submitted via: ExactAudioCopy v1.0b3
#
DISCID=950b820b
DTITLE=Ford, Robben - Keep On Running
DYEAR=2003
DGENRE=Blues
TTITLE0=Keep On Running
TTITLE1=Over My Head
TTITLE2=Homework
TTITLE3=Badge
TTITLE4=Peace Love And Understanding
TTITLE5=Cannonball Shuffle
TTITLE6=Lifetime Thing
TTITLE7=Bonnie
TTITLE8=Me And My Woman
TTITLE9=For The Love Of Money
TTITLE10=Hand In Hand With The Blues
EXTD=YEAR: 2003
EXTT0=
EXTT1=
EXTT2=
EXTT3=
EXTT4=
EXTT5=
EXTT6=
EXTT7=
EXTT8=
EXTT9=
EXTT10=
PLAYORDER=
